<?xml version="1.0" encoding="utf-8"?>
<?xml-stylesheet type="text/xsl" href="rss1.xsl"?>
<rss version="2.0" xmlns:atom="http://www.w3.org/2005/Atom" xmlns:content="http://purl.org/rss/1.0/modules/content/" xmlns:dc="http://purl.org/dc/elements/1.1/" xmlns:media="http://search.yahoo.com/mrss/">
<channel>
 <title>Getty</title>
 <link>http://www.gettyimg.com/</link>
 <atom:link href="http://www.gettyimg.com/" rel="self" type="application/rss+xml" />

 
                <item>
                <title><![CDATA[【Music Videos】Taylor Swift - Karma (feat. Ice Spice) [1080P AM WEB-DL H.264 DDP 5.1 ATMOS]- By RK✪]]></title>
                <link><![CDATA[https://sharemania.us/threads/taylor-swift-karma-feat-ice-spice-1080p-am-web-dl-h-264-ddp-5-1-atmos-by-rk%E2%9C%AA.222012/]]></link>
                <description><![CDATA[<article>
<blockquote class="messageText SelectQuoteContainer ugc baseHtml">
<b>Taylor Swift - Karma (feat. Ice Spice) [1080P AM WEB-DL H.264 DDP 5.1 ATMOS]- By RK✪</b><br>
<br>
<span style="color: #0000ff"><b><i>Hear The Difference!!</i></b></span><br>
<br>
<div class="bbCodeBlock bbCodeCode">
<div class="type">Code:</div>
<pre>Media Info:
Format                      : Matroska
Format version              : Version 4
File size                   : 268 MiB
Duration                    : 3 min 25 s
Overall bit rate            : 11.0 Mb/s
Frame rate                  : 23.976 FPS
Movie name                  : Taylor Swift - Karma (feat. Ice Spice) - By RK✪
Encoded date                : 2023-06-04 10:57:42 UTC
Writing application         : mkvmerge v75.0.0 ('Goliath') 64-bit
Writing library             : libebml v1.4.4 + libmatroska v1.7.1
Video
ID                          : 1
Format                      : AVC
Format/Info                 : Advanced Video Codec
Format profile              : High@L4
Format settings             : CABAC / 4 Ref Frames
Format settings, CABAC      : Yes
Format settings, Reference  : 4 frames
Codec ID                    : V_MPEG4/ISO/AVC
Duration                    : 3 min 25 s
Bit rate                    : 9 941 kb/s
Width                       : 1 920 pixels
Height                      : 1 080 pixels
Display aspect ratio        : 16:9
Frame rate mode             : Constant
Frame rate                  : 23.976 (24000/1001) FPS
Color space                 : YUV
Chroma subsampling          : 4:2:0
Bit depth                   : 8 bits
Scan type                   : Progressive
Bits/(Pixel*Frame)          : 0.200
Stream size                 : 243 MiB (91%)
Title                       : - By RK✪
Language                    : English
Default                     : Yes
Forced                      : No
Color range                 : Limited
Color primaries             : BT.709
Transfer characteristics    : BT.709
Matrix coefficients         : BT.709
Audio #1
ID                          : 2
Format                      : E-AC-3 JOC
Format/Info                 : Enhanced AC-3 with Joint Object Coding
Commercial name             : Dolby Digital Plus with Dolby Atmos
Codec ID                    : A_EAC3
Duration                    : 3 min 21 s
Bit rate mode               : Constant
Bit rate                    : 768 kb/s
Channel(s)                  : 6 channels
Channel layout              : L R C LFE Ls Rs
Sampling rate               : 48.0 kHz
Frame rate                  : 31.250 FPS (1536 SPF)
Compression mode            : Lossy
Delay relative to video     : -19 ms
Stream size                 : 18.4 MiB (7%)
Title                       : - By RK✪
Language                    : English
Service kind                : Complete Main
Default                     : Yes
Forced                      : No
Complexity index            : 16
Number of dynamic objects   : 15
Bed channel count           : 1 channel
Bed channel configuration   : LFE
Audio #2
ID                          : 3
Format                      : AAC LC
Format/Info                 : Advanced Audio Codec Low Complexity
Codec ID                    : A_AAC-2
Duration                    : 3 min 25 s
Bit rate                    : 257 kb/s
Channel(s)                  : 2 channels
Channel layout              : L R
Sampling rate               : 48.0 kHz
Frame rate                  : 46.875 FPS (1024 SPF)
Compression mode            : Lossy
Delay relative to video     : -42 ms
Stream size                 : 6.28 MiB (2%)
Title                       : - By RK✪
Language                    : English
Default                     : No
Forced                      : No
Text
ID                          : 4
Format                      : UTF-8
Codec ID                    : S_TEXT/UTF8
Codec ID/Info               : UTF-8 Plain Text
Duration                    : 3 min 18 s
Bit rate                    : 127 b/s
Frame rate                  : 0.417 FPS
Count of elements           : 83
Stream size                 : 3.09 KiB (0%)
Title                       : - By RK✪
Language                    : English
Default                     : Yes
Forced                      : No
</pre>
</div><b><span style="color: #ff0000">Password:</span></b><br>
<br>
<div class="bbCodeBlock bbCodeVfcHH HiddenContent">
<div class="attribution type">Hidden Content:</div>
<blockquote>You must reply before you can see the hidden data contained here.</blockquote>
</div><b><span style="color: #00b300">Link:</span></b><br>
<br>
<div class="bbCodeBlock bbCodeVfcHH HiddenContent">
<div class="attribution type">Hidden Content:</div>
<blockquote>You must reply before you can see the hidden data contained here.</blockquote>
</div>
<div class="messageTextEndMarker">&nbsp;</div>
</blockquote>
</article>]]></description>
                <author><![CDATA[RK94]]></author>
                </item>

                
                <item>
                <title><![CDATA[【Music Videos】Ariana Grande - pov [4K Master ProRes Rip (HEVC) with DDP 5.1 ATMOS] - By RK✪]]></title>
                <link><![CDATA[https://sharemania.us/threads/ariana-grande-pov-4k-master-prores-rip-hevc-with-ddp-5-1-atmos-by-rk%E2%9C%AA.222013/]]></link>
                <description><![CDATA[<article>
<blockquote class="messageText SelectQuoteContainer ugc baseHtml">
<b>Ariana Grande - pov [4K Master ProRes Rip (HEVC) with DDP 5.1 ATMOS] - By RK✪ </b><br>
<br>
<b><i><span style="color: #0000ff">Hear The Difference!!</span></i></b><br>
<br>
<div class="bbCodeBlock bbCodeCode">
<div class="type">Code:</div>
<pre>Media info:
Format                      : Matroska
Format version              : Version 4
File size                   : 701 MiB
Duration                    : 3 min 22 s
Overall bit rate            : 29.1 Mb/s
Frame rate                  : 23.976 FPS
Movie name                  : Ariana Grande - pov   - By RK✪
Encoded date                : 2023-06-04 10:56:47 UTC
Writing application         : mkvmerge v75.0.0 ('Goliath') 64-bit
Writing library             : libebml v1.4.4 + libmatroska v1.7.1
Video
ID                          : 1
Format                      : HEVC
Format/Info                 : High Efficiency Video Coding
Format profile              : Main@L5@Main
Codec ID                    : V_MPEGH/ISO/HEVC
Duration                    : 3 min 20 s
Bit rate                    : 26.2 Mb/s
Width                       : 3 840 pixels
Height                      : 2 160 pixels
Display aspect ratio        : 16:9
Frame rate mode             : Constant
Frame rate                  : 23.976 (24000/1001) FPS
Color space                 : YUV
Chroma subsampling          : 4:2:0
Bit depth                   : 8 bits
Bits/(Pixel*Frame)          : 0.132
Stream size                 : 627 MiB (89%)
Title                       : - By RK✪
Language                    : English
Default                     : Yes
Forced                      : No
Color range                 : Limited
Color primaries             : BT.709
Transfer characteristics    : BT.709
Matrix coefficients         : BT.709
Audio #1
ID                          : 2
Format                      : E-AC-3 JOC
Format/Info                 : Enhanced AC-3 with Joint Object Coding
Commercial name             : Dolby Digital Plus with Dolby Atmos
Codec ID                    : A_EAC3
Duration                    : 3 min 21 s
Bit rate mode               : Constant
Bit rate                    : 768 kb/s
Channel(s)                  : 6 channels
Channel layout              : L R C LFE Ls Rs
Sampling rate               : 48.0 kHz
Frame rate                  : 31.250 FPS (1536 SPF)
Compression mode            : Lossy
Delay relative to video     : 333 ms
Stream size                 : 18.5 MiB (3%)
Title                       : - By RK✪
Language                    : English
Service kind                : Complete Main
Default                     : Yes
Forced                      : No
Complexity index            : 16
Number of dynamic objects   : 15
Bed channel count           : 1 channel
Bed channel configuration   : LFE
Audio #2
ID                          : 3
Format                      : PCM
Format settings             : Little / Signed
Codec ID                    : A_PCM/INT/LIT
Duration                    : 3 min 20 s
Bit rate mode               : Constant
Bit rate                    : 2 304 kb/s
Channel(s)                  : 2 channels
Sampling rate               : 48.0 kHz
Frame rate                  : 25.001 FPS (1920 SPF)
Bit depth                   : 24 bits
Stream size                 : 55.2 MiB (8%)
Title                       : - By RK✪
Language                    : English
Default                     : No
Forced                      : No
Text
ID                          : 4
Format                      : UTF-8
Codec ID                    : S_TEXT/UTF8
Codec ID/Info               : UTF-8 Plain Text
Duration                    : 2 min 54 s
Bit rate                    : 79 b/s
Frame rate                  : 0.298 FPS
Count of elements           : 52
Stream size                 : 1.70 KiB (0%)
Title                       : - By RK✪
Language                    : English
Default                     : Yes
Forced                      : No
</pre>
</div><b><span style="color: #ff0000">Password:</span></b><br>
<br>
9874<br>
<br>
<b><span style="color: #00b300">Link:</span></b><br>
<br>
<div class="bbCodeBlock bbCodeVfcHH HiddenContent">
<div class="attribution type">Hidden Content:</div>
<blockquote>You must reply before you can see the hidden data contained here.</blockquote>
</div>
<div class="messageTextEndMarker">&nbsp;</div>
</blockquote>
</article>]]></description>
                <author><![CDATA[RK94]]></author>
                </item>

                </channel></rss>